# Blender 4.4.0
# www.blender.org
mtllib Grass.mtl
o Plane
v -0.010000 -0.073375 0.000000
v 0.010000 -0.073375 0.000000
v 0.000000 0.236598 -0.000000
v -0.007603 0.154360 -0.000000
v -0.009273 0.078448 -0.000000
v -0.009648 0.002537 -0.000000
v 0.009648 0.002537 -0.000000
v 0.009273 0.078448 -0.000000
v 0.007603 0.154360 -0.000000
vn -0.0000 -0.0000 1.0000
vt 0.000325 0.999969
vt 0.000325 0.755086
vt 1.000263 0.755086
vt 1.000263 0.999969
vt 0.000324 0.510203
vt 1.000263 0.510204
vt 0.000324 0.265321
vt 1.000263 0.265321
vt 0.500293 0.000031
s 1
f 2/1/1 7/2/1 6/3/1 1/4/1
f 7/2/1 8/5/1 5/6/1 6/3/1
f 8/5/1 9/7/1 4/8/1 5/6/1
f 9/7/1 3/9/1 4/8/1
